# xmcd CD database file
#
# Track frame offsets:
#	150
#	15745
#	32283
#
# Disc length: 636 seconds
#
# Revision: 1
# Processed by: cddbd v1.5PL3 Copyright (c) Steve Scherf et al.
# Submitted via: CDex 1.51
#
DISCID=14027a03
DTITLE=PAMELAH - 涙
DYEAR=1996
DGENRE=JPop
TTITLE0=涙
TTITLE1=ためいき
TTITLE2=涙 (ORIGINAL KARAOKE)
EXTD=YEAR: 1996
EXTT0=
EXTT1=
EXTT2=
PLAYORDER=
